# xmcd
#
# Track frame offsets:
#	150
#	20242
#	42495
#	66640
#	84735
#	100630
#	117092
#	136162
#	153517
#	179237
#	198137
#	219677
#	235057
#	257207
#	270137
#	284777
#	303187
#	318892
#
# Disc length: 4443 seconds
#
# Revision: 0
# Processed by: cddbd v1.4PL0 Copyright (c) Steve Scherf et al.
# Submitted via: EasyCDDAExtractor 4.6.0.1
#
DISCID=0b115912
DTITLE=Clifton Chenier - Cajun Swamp Music
DYEAR=1977
DGENRE=Blues
TTITLE0=Tu es si jolie
TTITLE1=No salt in your snapbeans
TTITLE2=You're just fussing too much
TTITLE3=Pinetops Boogie Woogie
TTITLE4=Marcher Plancher
TTITLE5=Here little girl
TTITLE6=Release me
TTITLE7=Jambalaya
TTITLE8=I'm a hog for you
TTITLE9=Louisiana two-step
TTITLE10=When you going to sing for me?
TTITLE11=Who Who Who?
TTITLE12=You promised me love
TTITLE13=Black Girl
TTITLE14=Money
TTITLE15=Hush, Hush
TTITLE16=Calinda
TTITLE17=Duo (Encore)
EXTD=Charly - CPCD 8237
EXTT0=
EXTT1=
EXTT2=
EXTT3=
EXTT4=
EXTT5=
EXTT6=
EXTT7=
EXTT8=
EXTT9=
EXTT10=
EXTT11=
EXTT12=
EXTT13=
EXTT14=
EXTT15=
EXTT16=
EXTT17=
PLAYORDER=
